<svg width="334" height="506" viewBox="0 0 334 506" fill="none" xmlns="http://www.w3.org/2000/svg">
<path d="M148.25 505C139.85 504.15 117.25 499.5 116.5 498.5C116.35 498.3 113.25 497.2 109.65 496.05C106 494.9 102.3 493.55 101.4 493.05C100.5 492.5 97.95 491.35 95.75 490.45C93.55 489.6 91.4 488.55 91 488.25C90.6 487.9 88.25 486.6 85.75 485.35C79.7 482.25 69.5 475.65 64.3 471.45C56.35 465 54.45 463.3 48.3 457.25C41.8 450.75 36.15 444.2 31.15 437.3C22.7 425.6 13.6 408.5 10.25 398C9.5 395.65 8.55 393.15 8.2 392.4C7.05 390.1 3.7 376.55 2 367.25C0.95 361.55 0 349.85 0 342.8V338H39H78L78.2 339.15C78.35 339.75 78.55 341.95 78.75 344C79.3 351.05 82.75 367.2 84 368.75C84.25 369.05 85.1 371.05 86 373.25C87.6 377.3 90.15 382 93.45 386.95C94.45 388.4 95.6 390.15 96.05 390.85C96.5 391.5 98.8 394.25 101.2 397C105.35 401.8 111.4 407.2 117.05 411.15C121.55 414.3 130 418.85 134 420.3C136.05 421.05 138.2 421.95 138.75 422.3C141.2 423.8 154.15 426.25 163.05 426.8C170.95 427.35 188.5 424.9 193.7 422.55C194.8 422 197.65 420.85 200 419.95C209.55 416.3 219.55 409.5 228.5 400.5C234.15 394.85 237.1 391.15 242.25 383.1C245.7 377.75 249.85 367.6 251.55 360.5C252.4 356.8 253.3 353.3 253.5 352.75C254 351.55 255 342.9 255 340.05V338H293.95H332.9L333.15 339.1C333.5 340.35 332.75 353.85 331.95 361.25C331.2 368.45 330.1 374.95 329.25 377.25C328.85 378.35 327.95 381.65 327.25 384.6C324.9 394.55 318.45 410.05 311.35 423.1C310.2 425.2 308.9 427.3 308.45 427.85C308.05 428.35 307.15 429.65 306.55 430.75C304.55 434.25 295.55 445.9 290.75 451.15C281.3 461.6 271 470.5 260.5 477.4C257.35 479.45 254.15 481.55 253.35 482.1C251 483.7 240.05 489.5 237.35 490.55C235.9 491.1 233.5 492.2 232 492.95C230.5 493.75 226.55 495.2 223.25 496.25C219.95 497.25 217.05 498.3 216.75 498.5C216.05 499.05 206.6 501.3 200.75 502.25C198 502.75 195.6 503.2 195.4 503.3C195.2 503.45 193.15 503.9 190.9 504.3C186 505.25 155.65 505.7 148.25 505Z" fill="#FCFCFC"/>
<path d="M155.25 333C147.2 332.45 138.5 331.45 138.5 331C138.5 330.8 137.3 330.5 135.9 330.3C130.8 329.65 120.7 327.4 117.75 326.25C116.1 325.65 112.15 324.3 109 323.25C105.85 322.25 103.05 321.25 102.75 321C102.5 320.8 100.25 319.75 97.75 318.75C92.4 316.5 86.75 313.55 79 308.9C62.75 299.1 48.9 286.85 35.55 270.5C25.5 258.2 15 239.3 9.70003 224C8.80003 221.4 7.70003 218.3 7.30003 217.1C6.45003 214.8 2.75003 199.45 1.95003 195C-0.449973 181.1 -0.649967 155.35 1.55003 140.25C2.40003 134.35 7.00003 115.55 8.25003 112.75C8.65003 111.95 9.55003 109.45 10.25 107.25C14 95.7 26.75 72.95 34.85 63.2C53.4 40.9 70.2 27.4 93.9 15.8C96.45 14.55 100.45 12.85 102.85 12C105.2 11.15 107.7 10.15 108.45 9.75C110.05 8.9 114.8 7.4 120.5 6C122.85 5.4 125 4.75001 125.25 4.55001C126.4 3.65001 141.75 1.35 152.25 0.500004C157.25 0.100004 183.4 2.08989e-06 243.4 0.100002L327.55 0.250004V38.75C327.55 59.95 327.55 77.55 327.5 77.9C327.5 78.35 325.3 78.5 318.3 78.5H309.1L311.2 82.4C312.4 84.5 313.7 86.95 314.15 87.75C316.4 91.8 320.15 100 321.75 104.35C322.75 107.05 324 110.3 324.5 111.55C325.05 112.8 326.25 117.05 327.2 120.9C328.2 124.8 329.15 128.4 329.4 128.9C329.9 129.85 331.2 137.7 332.05 144.75C332.9 151.7 333.2 176.85 332.55 183.25C331.55 192.7 329.95 202.95 329.25 204.7C328.85 205.6 328.15 208.05 327.75 210.05C326.7 214.6 324.5 222.1 324 222.75C323.75 223.05 322.8 225.55 321.8 228.4C320.85 231.2 319.35 234.8 318.5 236.4C317.7 237.95 316.2 240.95 315.25 243C306.3 262.05 288.9 283.15 269.8 298.15C262.55 303.8 252.25 310.55 247 313.05C245.2 313.9 243.4 314.9 243 315.25C242.55 315.65 240.55 316.65 238.5 317.5C236.45 318.4 233.4 319.7 231.75 320.5C230.1 321.25 226.15 322.7 223 323.7C219.85 324.7 216.55 325.85 215.75 326.2C213.95 327.05 204.8 329.15 199.3 330C197.1 330.35 194.75 330.8 194.05 331.1C190 332.6 166.7 333.75 155.25 333ZM182.25 252.75C186.15 252.1 190.2 251.25 191.25 250.85C199.45 247.8 203.05 246.2 208.05 243.5C211.2 241.8 214.2 240 214.75 239.55C215.3 239.05 217.25 237.65 219.05 236.35C223.45 233.3 232.55 224.25 236.35 219.2C242.9 210.5 248.75 199 250.8 190.8C251.5 188.05 252.5 184.05 253.05 181.95C254.45 176.3 255.1 167 254.5 160.2C253.95 153.75 250.2 138.35 248.3 134.55C247.65 133.3 246.55 130.85 245.85 129.2C244.3 125.6 239.75 118.2 236 113.25C225.35 99.15 207.6 86.9 191.5 82.5C188.35 81.65 185.3 80.75 184.75 80.5C180.3 78.65 164.1 77.95 154.95 79.25C151.55 79.7 148.55 80.3 148.25 80.5C148 80.7 145.4 81.5 142.5 82.25C133.1 84.7 121.55 90.75 111.7 98.35C108.25 101 99.4 109.85 98.15 111.95C97.65 112.65 96.25 114.6 94.95 116.25C93.7 117.9 92.1 120.25 91.5 121.5C90.85 122.7 89.85 124.5 89.2 125.5C88.55 126.45 87.45 128.7 86.7 130.5C86 132.3 84.85 134.9 84.2 136.25C81.7 141.65 78.5 159.05 78.5 167.5C78.5 173.55 81.9 192 83.5 194.9C83.75 195.4 84.85 197.9 85.95 200.55C87.65 204.75 93.45 215.3 94.45 216C94.65 216.15 95.65 217.5 96.6 219C99.4 223.2 111.1 234.7 115.25 237.25C116.1 237.75 117.2 238.55 117.75 239.05C121.35 242.15 136.8 249.45 143.75 251.3C155.65 254.55 168.55 255 182.25 252.75Z" fill="#FCFCFC"/>
</svg>
